<svg width="29" height="29" viewBox="0 0 29 29" fill="none" xmlns="http://www.w3.org/2000/svg">
    <path
        d="M14.4409 26.665C21.2064 26.665 26.6909 21.1805 26.6909 14.415C26.6909 7.64955 21.2064 2.16504 14.4409 2.16504C7.67543 2.16504 2.19092 7.64955 2.19092 14.415C2.19092 21.1805 7.67543 26.665 14.4409 26.665Z"
        fill="url(#paint0_linear_238_3383)" />
    <path
        d="M19.0029 18.1614L19.5471 14.7039H16.143V12.4612C16.143 11.515 16.6177 10.5923 18.1423 10.5923H19.6909V7.64866C19.6909 7.64866 18.2861 7.41504 16.9437 7.41504C14.1389 7.41504 12.3074 9.07136 12.3074 12.0686V14.7039H9.19092V18.1614H12.3074V26.5202C12.933 26.616 13.5731 26.665 14.2251 26.665C14.8772 26.665 15.5173 26.616 16.143 26.5202V18.1614H19.0029Z"
        fill="white" />
    <defs>
        <linearGradient id="paint0_linear_238_3383" x1="14.4409" y1="2.16504" x2="14.4409"
            y2="26.5924" gradientUnits="userSpaceOnUse">
            <stop stop-color="#18ACFE" />
            <stop offset="1" stop-color="#0163E0" />
        </linearGradient>
    </defs>
</svg>