<svg width="117" height="44" viewBox="0 0 117 44" fill="none" xmlns="http://www.w3.org/2000/svg">
    <rect x="0.2" y="2.2" width="37.6" height="39.6" rx="18.8" stroke="#006FFD" stroke-width="0.4" />
    <path
        d="M16.9186 15.5976C16.9186 17.5844 15.3698 19.1951 13.4593 19.1951C11.5488 19.1951 10 17.5844 10 15.5976C10 13.6107 11.5488 12 13.4593 12C15.3698 12 16.9186 13.6107 16.9186 15.5976Z"
        fill="#006FFD" />
    <path
        d="M20.9788 12C24.1477 13.9027 25.2334 18.1167 23.4039 21.4122L17.526 31.9999C14.3572 30.0972 13.2714 25.8832 15.101 22.5877L20.9788 12Z"
        fill="#006FFD" />
    <path
        d="M24.5407 32C26.4512 32 28 30.3893 28 28.4024C28 26.4156 26.4512 24.8049 24.5407 24.8049C22.6302 24.8049 21.0814 26.4156 21.0814 28.4024C21.0814 30.3893 22.6302 32 24.5407 32Z"
        fill="#006FFD" />
    <path
        d="M58.4002 13.272V15.048H53.8402V30H51.6562V15.048H47.0722V13.272H58.4002ZM60.1076 23.376C60.1076 22.032 60.3796 20.856 60.9236 19.848C61.4676 18.824 62.2116 18.032 63.1556 17.472C64.1156 16.912 65.1796 16.632 66.3476 16.632C67.4996 16.632 68.4996 16.88 69.3476 17.376C70.1956 17.872 70.8276 18.496 71.2436 19.248V16.848H73.4516V30H71.2436V27.552C70.8116 28.32 70.1636 28.96 69.2996 29.472C68.4516 29.968 67.4596 30.216 66.3236 30.216C65.1556 30.216 64.0996 29.928 63.1556 29.352C62.2116 28.776 61.4676 27.968 60.9236 26.928C60.3796 25.888 60.1076 24.704 60.1076 23.376ZM71.2436 23.4C71.2436 22.408 71.0436 21.544 70.6436 20.808C70.2436 20.072 69.6996 19.512 69.0116 19.128C68.3396 18.728 67.5956 18.528 66.7796 18.528C65.9636 18.528 65.2196 18.72 64.5476 19.104C63.8756 19.488 63.3396 20.048 62.9396 20.784C62.5396 21.52 62.3396 22.384 62.3396 23.376C62.3396 24.384 62.5396 25.264 62.9396 26.016C63.3396 26.752 63.8756 27.32 64.5476 27.72C65.2196 28.104 65.9636 28.296 66.7796 28.296C67.5956 28.296 68.3396 28.104 69.0116 27.72C69.6996 27.32 70.2436 26.752 70.6436 26.016C71.0436 25.264 71.2436 24.392 71.2436 23.4ZM79.1614 12.24V30H76.9774V12.24H79.1614Z"
        fill="white" />
    <path
        d="M85.4546 15.024C85.0226 15.024 84.6706 14.888 84.3986 14.616C84.1266 14.344 83.9906 14 83.9906 13.584C83.9906 13.024 84.1986 12.544 84.6146 12.144C85.0466 11.728 85.5346 11.52 86.0786 11.52C86.5106 11.52 86.8546 11.656 87.1106 11.928C87.3826 12.2 87.5186 12.544 87.5186 12.96C87.5186 13.52 87.3106 14.008 86.8946 14.424C86.4786 14.824 85.9986 15.024 85.4546 15.024ZM86.4866 16.776L84.1586 30H81.4226L83.7506 16.776H86.4866ZM96.6337 16.56C98.0257 16.56 99.1297 16.936 99.9457 17.688C100.778 18.424 101.194 19.488 101.194 20.88C101.194 21.232 101.154 21.672 101.074 22.2L99.6817 30H96.9697L98.2897 22.608C98.3537 22.16 98.3857 21.84 98.3857 21.648C98.3857 20.768 98.1377 20.096 97.6417 19.632C97.1617 19.168 96.4897 18.936 95.6257 18.936C94.5857 18.936 93.7057 19.256 92.9857 19.896C92.2817 20.52 91.8337 21.424 91.6417 22.608V22.536L90.3217 30H87.5857L89.9137 16.776H92.6497L92.3857 18.312C92.9297 17.768 93.5697 17.344 94.3057 17.04C95.0577 16.72 95.8337 16.56 96.6337 16.56ZM109.391 23.4L114.335 30H110.639L106.751 24.312L105.743 30H103.007L106.151 12.24H108.887L107.063 22.536L112.871 16.776H116.663L109.391 23.4Z"
        fill="#006FFD" />
</svg>