<svg width="184" height="184" viewBox="0 0 184 184" fill="none" xmlns="http://www.w3.org/2000/svg">
    <circle cx="98" cy="104.659" r="67.5" fill="#2B44FB" />
    <circle cx="175" cy="164.277" r="4.5" fill="#2B44FB" />
    <circle cx="8" cy="7.72266" r="7.5" fill="#2B44FB" />
    <circle cx="7" cy="136.277" r="6.5" fill="#2B44FB" />
    <circle cx="173.5" cy="28.7773" r="10" fill="#2B44FB" />
    <circle cx="178" cy="124.277" r="2.5" fill="#2B44FB" />
    <circle cx="6.5" cy="77.7773" r="1" fill="#2B44FB" />
    <circle cx="59" cy="180.277" r="3.5" fill="#2B44FB" />
    <circle cx="58" cy="11.2773" r="2.5" fill="#2B44FB" />
    <path fill-rule="evenodd" clip-rule="evenodd"
        d="M76.3031 88.7719C75.375 90.0942 75.375 94.0246 75.375 101.885V105.757C75.375 119.617 85.7958 126.343 92.334 129.199C94.1075 129.974 94.9942 130.361 97.5 130.361C100.006 130.361 100.892 129.974 102.666 129.199C109.204 126.343 119.625 119.617 119.625 105.757V101.885C119.625 94.0246 119.625 90.0942 118.697 88.7719C117.769 87.4497 114.073 86.1847 106.682 83.6546L105.274 83.1726C101.421 81.8538 99.4947 81.1943 97.5 81.1943C95.5053 81.1943 93.579 81.8538 89.7261 83.1726L88.3179 83.6546C80.9267 86.1847 77.2311 87.4497 76.3031 88.7719ZM105.021 102.089C105.699 101.329 105.633 100.164 104.874 99.4857C104.114 98.8075 102.949 98.8735 102.27 99.633L94.8661 107.926L92.7296 105.533C92.0513 104.773 90.8858 104.708 90.1262 105.386C89.3666 106.064 89.3006 107.229 89.9789 107.989L93.4907 111.922C93.8405 112.314 94.3408 112.538 94.8661 112.538C95.3912 112.538 95.8915 112.314 96.2413 111.922L105.021 102.089Z"
        fill="white" />
</svg>