<svg width="301" height="301" viewBox="0 0 301 301" fill="none" xmlns="http://www.w3.org/2000/svg">
    <path
        d="M150.721 300.908C233.563 300.908 300.721 233.751 300.721 150.908C300.721 68.0655 233.563 0.908203 150.721 0.908203C67.878 0.908203 0.720703 68.0655 0.720703 150.908C0.720703 233.751 67.878 300.908 150.721 300.908Z"
        fill="#2B44FB" />
    <path opacity="0.05"
        d="M150.718 274.737C219.108 274.737 274.548 219.297 274.548 150.907C274.548 82.5179 219.108 27.0774 150.718 27.0774C82.3288 27.0774 26.8882 82.5179 26.8882 150.907C26.8882 219.297 82.3288 274.737 150.718 274.737Z"
        fill="black" />
    <path opacity="0.05"
        d="M150.611 246.429C203.043 246.429 245.547 203.925 245.547 151.493C245.547 99.0606 203.043 56.556 150.611 56.556C98.1785 56.556 55.6738 99.0606 55.6738 151.493C55.6738 203.925 98.1785 246.429 150.611 246.429Z"
        fill="black" />
    <g clip-path="url(#clip0_224_2019)">
        <path
            d="M163.859 128.104H177.192V141.437M177.192 168.104V181.437H163.859M137.192 181.437H123.859V168.104M123.859 141.437V128.104H137.192"
            stroke="white" stroke-width="6" stroke-linecap="round" stroke-linejoin="round" />
        <path
            d="M150.525 176.104C160.835 176.104 169.192 166.552 169.192 154.77C169.192 142.988 160.835 133.437 150.525 133.437C140.216 133.437 131.859 142.988 131.859 154.77C131.859 166.552 140.216 176.104 150.525 176.104Z"
            stroke="white" stroke-width="6" />
        <path d="M126.525 154.781L174.525 154.77" stroke="white" stroke-width="6" stroke-linecap="round" />
        <path
            d="M145.285 165.578C146.975 166.828 148.722 167.453 150.525 167.453C152.328 167.453 154.123 166.828 155.91 165.578"
            stroke="white" stroke-width="6" stroke-linecap="round" />
    </g>
    <defs>
        <clipPath id="clip0_224_2019">
            <rect width="64" height="64" fill="white" transform="translate(118.525 122.771)" />
        </clipPath>
    </defs>
</svg>