<svg width="30" height="30" viewBox="0 0 30 30" fill="none" xmlns="http://www.w3.org/2000/svg">
    <path
        d="M23.0488 24.4776C22.0459 25.976 20.9826 27.438 19.3634 27.4622C17.7442 27.4985 17.2246 26.5076 15.388 26.5076C13.5392 26.5076 12.9713 27.438 11.4367 27.4985C9.85377 27.5589 8.65752 25.9035 7.64252 24.4414C5.57627 21.4568 3.99336 15.9589 6.12002 12.2614C7.17127 10.4247 9.05627 9.2647 11.0984 9.22845C12.6451 9.20429 14.1192 10.2797 15.0738 10.2797C16.0163 10.2797 17.8046 8.98679 19.6776 9.18012C20.463 9.21637 22.6621 9.49429 24.0759 11.5726C23.9671 11.6451 21.4538 13.1193 21.478 16.1764C21.5142 19.8255 24.6801 21.046 24.7163 21.058C24.6801 21.1426 24.2088 22.798 23.0488 24.4776ZM16.1492 5.14429C17.0313 4.14137 18.4934 3.38012 19.7017 3.33179C19.8588 4.74554 19.2909 6.17137 18.4451 7.18637C17.6113 8.21345 16.2338 9.01095 14.8805 8.9022C14.6992 7.51262 15.3759 6.06262 16.1492 5.14429Z"
        fill="white" />
</svg>