<svg width="26" height="26" viewBox="0 0 26 26" fill="none" xmlns="http://www.w3.org/2000/svg">
    <path fill-rule="evenodd" clip-rule="evenodd"
        d="M5.67348 13.4155C5.67348 12.6036 5.81127 11.8252 6.0572 11.095L1.75255 7.87793C0.913592 9.545 0.440918 11.4234 0.440918 13.4155C0.440918 15.4059 0.913011 17.2832 1.7508 18.9491L6.05313 15.7258C5.80952 14.9991 5.67348 14.2235 5.67348 13.4155Z"
        fill="#FBBC05" />
    <path fill-rule="evenodd" clip-rule="evenodd"
        d="M13.2315 6.02876C15.0338 6.02876 16.6617 6.65376 17.9408 7.67651L21.6617 4.04009C19.3943 2.10824 16.4873 0.915039 13.2315 0.915039C8.17686 0.915039 3.83267 3.74406 1.75244 7.87765L6.05709 11.0947C7.04895 8.14811 9.87628 6.02876 13.2315 6.02876Z"
        fill="#EB4335" />
    <path fill-rule="evenodd" clip-rule="evenodd"
        d="M13.2315 20.8013C9.87628 20.8013 7.04895 18.682 6.05709 15.7354L1.75244 18.9519C3.83267 23.086 8.17686 25.9151 13.2315 25.9151C16.3513 25.9151 19.3298 24.8309 21.5652 22.7997L17.4792 19.7081C16.3263 20.4189 14.8745 20.8013 13.2315 20.8013Z"
        fill="#34A853" />
    <path fill-rule="evenodd" clip-rule="evenodd"
        d="M25.4412 13.4149C25.4412 12.6762 25.325 11.8807 25.1505 11.1421H13.2319V15.9717H20.0924C19.7494 17.6183 18.8157 18.8843 17.4796 19.7081L21.5657 22.7997C23.9139 20.6667 25.4412 17.4893 25.4412 13.4149Z"
        fill="#4285F4" />
</svg>