<svg width="304" height="296" viewBox="0 0 304 296" fill="none" xmlns="http://www.w3.org/2000/svg">
    <path opacity="0.0526316"
        d="M23.6038 238.726C30.0139 247.254 50.5014 261.525 81.1702 250.383C119.506 236.455 134.333 199.538 168.548 180.395C193.802 166.267 261.659 145.059 300.679 168.494"
        stroke="#9099DF" />
    <path opacity="0.105263"
        d="M17.281 220.847C22.7646 229.999 41.6481 246.333 73.3136 238.458C112.895 228.614 131.5 193.448 167.529 177.987C194.121 166.576 263.823 152.577 300.179 179.962"
        stroke="#9099DF" />
    <path opacity="0.157895"
        d="M12.5044 202.728C17.0014 212.402 34.0741 230.621 66.3893 226.099C106.783 220.446 128.962 187.418 166.409 175.808C194.049 167.238 264.832 160.603 298.127 191.638"
        stroke="#9099DF" />
    <path opacity="0.210526"
        d="M9.29065 184.53C12.7517 194.621 27.8265 214.525 60.4374 213.405C101.201 212.006 126.71 181.477 165.166 173.845C193.55 168.211 264.64 169.011 294.507 203.356"
        stroke="#9099DF" />
    <path opacity="0.263158"
        d="M7.63932 166.418C10.0266 176.816 22.9383 198.186 55.4875 200.481C96.174 203.351 124.735 175.655 163.778 172.084C192.595 169.449 263.212 177.675 289.326 214.954"
        stroke="#9099DF" />
    <path opacity="0.315789"
        d="M7.53293 148.554C8.8202 159.144 19.4275 181.747 51.5584 187.432C91.7221 194.539 123.021 169.98 162.224 170.51C191.158 170.901 260.529 186.464 282.603 226.268"
        stroke="#9099DF" />
    <path opacity="0.368421"
        d="M8.93702 131.098C9.11021 141.765 17.2968 165.353 48.6574 174.366C87.8582 185.631 121.553 164.479 160.486 169.104C189.221 172.518 256.584 195.246 274.377 237.14"
        stroke="#9099DF" />
    <path opacity="0.421053"
        d="M11.8007 114.207C10.858 124.834 16.5341 149.148 46.7809 161.389C84.5894 176.691 120.311 159.177 158.546 167.846C186.767 174.244 251.386 203.889 264.702 247.414"
        stroke="#9099DF" />
    <path opacity="0.473684"
        d="M16.057 98.0292C14.0085 108.499 17.112 133.273 45.9136 148.609C81.9155 167.779 119.272 154.095 156.392 166.713C183.789 176.027 244.955 212.264 253.649 256.942"
        stroke="#9099DF" />
    <path opacity="0.526316"
        d="M21.6236 82.7068C18.4919 92.9054 18.9888 117.868 46.0295 136.131C79.8304 158.959 118.412 149.254 154.01 165.684C180.284 177.81 237.327 220.242 241.303 265.584"
        stroke="#9099DF" />
    <path opacity="0.578947"
        d="M28.404 68.3717C24.2235 78.1871 22.1083 103.065 47.0919 124.054C78.3214 150.29 117.706 144.672 151.392 164.732C176.254 179.538 228.55 227.701 227.764 273.21"
        stroke="#9099DF" />
    <path opacity="0.631579"
        d="M36.2882 55.1461C31.1046 64.4708 26.4006 88.9915 49.0534 112.477C77.3694 141.834 117.126 140.363 148.53 163.835C171.709 181.158 218.683 234.523 213.145 279.701"
        stroke="#9099DF" />
    <path opacity="0.684211"
        d="M45.1545 43.1387C39.0246 51.8705 31.7832 75.7651 51.857 101.49C76.9492 133.646 116.642 136.339 145.42 162.964C166.661 182.616 207.8 240.599 197.57 284.95"
        stroke="#9099DF" />
    <path opacity="0.736842"
        d="M54.8699 32.4454C47.8608 40.4885 38.1615 63.4954 55.4363 91.1775C77.0299 125.78 116.224 132.607 142.061 162.095C161.132 183.859 195.984 245.825 181.174 288.863"
        stroke="#9099DF" />
    <path opacity="0.789474"
        d="M65.2925 23.1482C57.4811 30.4147 45.43 52.2816 59.7166 81.6178C77.5749 118.288 115.84 129.175 138.454 161.202C155.145 184.84 183.33 250.109 164.102 291.364"
        stroke="#9099DF" />
    <path opacity="0.842105"
        d="M76.2725 15.3131C67.7443 21.7232 53.4735 42.2107 64.6154 72.8795C78.5428 111.216 115.461 126.042 134.603 160.258C148.731 185.511 169.939 253.369 146.504 292.388"
        stroke="#9099DF" />
    <path opacity="0.894737"
        d="M87.6539 8.99044C78.5025 14.474 62.1683 33.3576 70.0434 65.023C79.8873 104.605 115.053 123.209 130.514 159.238C141.925 185.83 155.924 255.533 128.539 291.889"
        stroke="#9099DF" />
    <path opacity="0.947368"
        d="M99.2765 4.21377C89.602 8.71072 71.3834 25.7834 75.9054 58.0986C81.558 98.4926 114.586 120.671 126.197 158.119C134.766 185.758 141.402 256.542 110.367 289.836"
        stroke="#9099DF" />
    <path
        d="M110.977 1C100.886 4.46106 80.9825 19.5359 82.1019 52.1467C83.5012 92.9103 114.03 118.42 121.663 156.876C127.296 185.259 126.496 256.349 92.1511 286.217"
        stroke="#9099DF" />
</svg>