<svg width="24" height="24" viewBox="0 0 24 24" fill="none" xmlns="http://www.w3.org/2000/svg">
<path d="M2.95827 8.06366L2.95868 8.06291C3.1735 7.67012 3.48338 7.33584 3.9893 6.94831C4.5043 6.55382 5.19094 6.12694 6.14762 5.53286C6.14767 5.53283 6.14772 5.53279 6.14777 5.53276L8.14762 4.29186L8.14767 4.29183C9.1594 3.66391 9.8862 3.21353 10.4974 2.91627C11.0984 2.62401 11.5487 2.5 12 2.5C12.4513 2.5 12.9019 2.62403 13.503 2.91629C14.1143 3.21352 14.8411 3.66389 15.8522 4.29177L15.8524 4.29186L17.8522 5.53276C18.809 6.12693 19.496 6.55382 20.0111 6.94834C20.5172 7.33589 20.8269 7.67005 21.0411 8.06256L21.0416 8.06346C21.2572 8.45654 21.3759 8.90579 21.4372 9.55748C21.4995 10.2193 21.5 11.0502 21.5 12.204V13.725C21.5 15.6891 21.4988 17.1135 21.3573 18.2003C21.2175 19.2745 20.9487 19.9435 20.4684 20.4406C19.9906 20.9352 19.3508 21.2099 18.3201 21.3533C17.2733 21.4989 15.9001 21.5 14 21.5H10C8.09989 21.5 6.72695 21.4989 5.68026 21.3533C4.64978 21.2099 4.00985 20.9352 3.53143 20.4404C3.0508 19.9434 2.78201 19.2743 2.64233 18.2C2.50099 17.113 2.5 15.6887 2.5 13.725V12.203C2.5 11.0497 2.50051 10.2188 2.5628 9.55698C2.62414 8.90523 2.74278 8.45611 2.95827 8.06366ZM10.75 18C10.75 18.3315 10.8817 18.6495 11.1161 18.8839C11.3505 19.1183 11.6685 19.25 12 19.25C12.3315 19.25 12.6495 19.1183 12.8839 18.8839C13.1183 18.6495 13.25 18.3315 13.25 18V15C13.25 14.6685 13.1183 14.3505 12.8839 14.1161C12.6495 13.8817 12.3315 13.75 12 13.75C11.6685 13.75 11.3505 13.8817 11.1161 14.1161C10.8817 14.3505 10.75 14.6685 10.75 15V18Z" fill="white" stroke="#FEFCFC"/>
</svg>
