<svg width="246" height="181" viewBox="0 0 246 181" fill="none" xmlns="http://www.w3.org/2000/svg">
    <g clip-path="url(#clip0_231_3228)">
        <path
            d="M88.6618 104.197C97.058 87.8689 113.074 75.3314 130.028 76.5392C117.522 91.5738 110.23 111.014 109.441 131.421C109.163 139.292 109.594 148.078 104.867 153.972C101.925 157.639 97.4294 159.416 93.0089 159.788C88.5881 160.161 84.1683 159.278 79.8066 158.398L78.7485 158.758C78.3457 139.981 80.2656 120.525 88.6618 104.197Z"
            fill="#E8E9F4" />
        <path
            d="M130.053 76.9323C117.516 83.6047 106.826 94.7482 100.263 108.339C98.8442 111.277 97.6362 114.394 97.1093 117.69C96.5821 120.987 96.9504 124.126 97.9691 127.257C98.9004 130.12 100.153 132.93 100.438 135.993C100.739 139.222 99.6648 142.241 97.7303 144.637C95.3634 147.569 92.1848 149.386 89.0205 151.043C85.5072 152.883 81.8315 154.733 79.3431 158.167C79.0416 158.583 78.4752 158.041 78.7763 157.626C83.1057 151.651 90.5167 150.528 95.6557 145.715C98.0537 143.469 99.8541 140.411 99.7404 136.828C99.6411 133.694 98.3517 130.796 97.3861 127.906C96.3722 124.872 95.8665 121.821 96.2301 118.585C96.6021 115.276 97.7024 112.1 99.047 109.135C102.079 102.447 106.229 96.3071 110.984 90.9995C116.447 84.8987 122.815 79.876 129.811 76.149C130.244 75.9185 130.484 76.7033 130.053 76.9323Z"
            fill="white" />
        <path
            d="M102.185 103.797C100.263 102.243 98.9035 99.9847 98.3486 97.4249C97.7937 94.8652 98.08 92.1707 99.1562 89.8227C99.3755 89.3484 100.052 89.7028 99.8329 90.1777C98.827 92.3621 98.5606 94.872 99.0817 97.2545C99.6028 99.637 100.877 101.735 102.675 103.17C103.065 103.483 102.573 104.107 102.185 103.797Z"
            fill="white" />
        <path
            d="M97.324 125.875C102.14 125.097 106.514 122.34 109.574 118.156C109.877 117.741 110.443 118.282 110.141 118.696C106.949 123.045 102.392 125.903 97.3789 126.7C96.901 126.776 96.8487 125.95 97.324 125.875Z"
            fill="white" />
        <path
            d="M116.817 85.9171C117.448 86.6896 118.242 87.2769 119.128 87.6262C120.015 87.9756 120.966 88.0761 121.896 87.9187C122.373 87.8364 122.424 88.6625 121.951 88.7443C120.922 88.9129 119.872 88.8005 118.892 88.4169C117.912 88.0333 117.032 87.3902 116.328 86.5438C116.256 86.4701 116.211 86.3688 116.204 86.2603C116.197 86.1519 116.227 86.0445 116.289 85.96C116.354 85.8774 116.446 85.8265 116.545 85.8185C116.644 85.8105 116.742 85.8459 116.817 85.9171Z"
            fill="white" />
        <path
            d="M163.762 128.049C163.466 128.11 163.169 128.17 162.87 128.237C158.889 129.077 154.976 130.273 151.17 131.813C150.875 131.927 150.576 132.047 150.284 132.17C141.15 135.989 132.738 141.648 125.473 148.862C122.585 151.735 119.898 154.847 117.437 158.171C114.038 162.762 110.684 168.039 106.242 171.032C105.782 171.35 105.305 171.636 104.812 171.889L79.227 160.157C79.1809 160.098 79.1322 160.045 79.0858 159.986L78.0449 159.569C78.161 159.388 78.285 159.203 78.4011 159.022C78.468 158.916 78.5407 158.813 78.6076 158.708C78.6541 158.638 78.7008 158.569 78.7391 158.503C78.7545 158.48 78.7702 158.457 78.7832 158.44C78.8215 158.375 78.8634 158.318 78.8993 158.259C79.5895 157.222 80.2875 156.188 80.9933 155.158C80.9957 155.151 80.9957 155.151 81.0039 155.147C86.3999 147.312 92.435 139.907 99.295 133.749C99.5014 133.564 99.71 133.372 99.9282 133.192C103.034 130.436 106.339 127.964 109.809 125.803C111.713 124.626 113.669 123.557 115.671 122.599C120.847 120.134 126.341 118.585 131.952 118.008C143.138 116.86 154.532 119.679 163.112 127.448C163.331 127.647 163.545 127.844 163.762 128.049Z"
            fill="#B8BEE9" />
        <path
            d="M163.57 128.381C149.925 125.364 135.321 127.146 122.68 133.629C119.947 135.031 117.285 136.716 115.069 138.997C112.852 141.278 111.437 144.029 110.545 147.208C109.729 150.114 109.199 153.191 107.759 155.827C106.241 158.605 103.739 160.3 100.889 160.926C97.4025 161.692 93.8751 161.026 90.4461 160.243C86.6389 159.374 82.6968 158.404 78.8397 159.49C78.3723 159.622 78.215 158.812 78.6817 158.681C85.3923 156.792 91.9212 160.828 98.6456 160.406C101.783 160.209 104.886 158.965 106.747 156.028C108.375 153.46 108.923 150.288 109.726 147.338C110.569 144.24 111.827 141.467 113.879 139.126C115.978 136.732 118.587 134.928 121.275 133.456C127.339 130.134 133.996 127.994 140.682 126.921C148.367 125.686 156.187 125.914 163.803 127.595C164.274 127.699 164.038 128.485 163.57 128.381Z"
            fill="white" />
        <path
            d="M126.688 131.282C126 128.763 126.144 126.054 127.095 123.641C128.046 121.228 129.742 119.267 131.88 118.109C132.313 117.876 132.661 118.609 132.227 118.842C130.234 119.917 128.654 121.744 127.773 123.993C126.891 126.242 126.766 128.765 127.42 131.108C127.562 131.617 126.829 131.789 126.688 131.282Z"
            fill="white" />
        <path
            d="M110.783 145.675C115.052 148.259 120.045 148.97 124.767 147.665C125.235 147.535 125.393 148.344 124.925 148.474C120.009 149.822 114.814 149.071 110.377 146.37C109.954 146.113 110.362 145.418 110.783 145.675Z"
            fill="white" />
        <path
            d="M148.108 126.746C148.191 127.782 148.505 128.779 149.022 129.648C149.54 130.517 150.245 131.231 151.073 131.724C151.498 131.976 151.09 132.67 150.667 132.42C149.754 131.87 148.977 131.081 148.403 130.122C147.829 129.164 147.477 128.064 147.376 126.92C147.359 126.813 147.378 126.703 147.432 126.612C147.485 126.52 147.568 126.455 147.663 126.428C147.76 126.406 147.861 126.427 147.945 126.486C148.028 126.545 148.087 126.639 148.108 126.746Z"
            fill="white" />
        <path
            d="M115.023 147.405C111.44 128.252 106.961 121.866 106.961 121.866L105.25 120.399L103.192 118.632L103.202 118.405L102.714 118.221L102.6 118.123L102.412 117.963L102.381 117.999L102.318 118.072L93.0063 114.573L81.1932 110.137L75.723 102.277C74.8321 100.997 73.6852 99.9619 72.372 99.2538C71.0589 98.5457 69.6152 98.1834 68.1542 98.1954L50.6842 98.3383C48.322 98.3576 46.0518 99.3531 44.3199 101.129L32.8371 112.904L14.9447 122.351L14.9145 122.318L14.7266 122.466L11.9621 123.927L12.0762 124.584L10.3651 125.949C10.3651 125.949 5.88613 131.891 2.30295 149.713C1.39142 154.247 0.942741 163.975 0.78079 175.962C0.772655 176.568 0.873644 177.171 1.07788 177.733C1.28212 178.296 1.58554 178.809 1.97049 179.241C2.35544 179.673 2.81424 180.016 3.32022 180.25C3.8262 180.484 4.36926 180.605 4.91783 180.605H100.485L112.413 180.605C112.961 180.605 113.504 180.484 114.009 180.25C114.515 180.016 114.973 179.674 115.358 179.242C115.743 178.811 116.047 178.299 116.251 177.737C116.456 177.174 116.557 176.573 116.55 175.967C116.392 162.923 115.943 152.323 115.023 147.405Z"
            fill="#2B44FB" />
        <path
            d="M127.285 17.3088C123.567 17.3088 120.001 18.9417 117.372 21.8482C114.743 24.7547 113.266 28.6968 113.266 32.8073C113.266 36.9177 114.743 40.8598 117.372 43.7663C120.001 46.6729 123.567 48.3057 127.285 48.3057H231.761C235.479 48.3057 239.045 46.6729 241.674 43.7663C244.303 40.8598 245.78 36.9177 245.78 32.8073C245.78 28.6968 244.303 24.7547 241.674 21.8482C239.045 18.9417 235.479 17.3088 231.761 17.3088H127.285Z"
            fill="#E5E5E5" />
        <path
            d="M127.285 20.4453C124.319 20.4453 121.475 21.7477 119.378 24.066C117.281 26.3843 116.103 29.5286 116.103 32.8072C116.103 36.0857 117.281 39.23 119.378 41.5483C121.475 43.8666 124.319 45.169 127.285 45.169H231.761C234.727 45.169 237.571 43.8666 239.668 41.5483C241.765 39.23 242.943 36.0857 242.943 32.8072C242.943 29.5286 241.765 26.3843 239.668 24.066C237.571 21.7477 234.727 20.4453 231.761 20.4453H127.285Z"
            fill="white" />
        <path
            d="M62.1627 90.9397C74.8031 90.9397 85.0502 79.6113 85.0502 65.6371C85.0502 51.6629 74.8031 40.3346 62.1627 40.3346C49.5223 40.3346 39.2752 51.6629 39.2752 65.6371C39.2752 79.6113 49.5223 90.9397 62.1627 90.9397Z"
            fill="#FFB8B8" />
        <path
            d="M56.3076 89.7007C56.2098 89.4627 56.1123 89.2239 56.0151 88.9843C56.0526 88.9856 56.0896 88.9915 56.1271 88.9926L56.3076 89.7007Z"
            fill="#2F2E41" />
        <path
            d="M38.6387 41.4852C39.7963 40.4643 41.1492 39.525 42.6293 39.5778C44.1092 39.6306 45.6101 41.1083 45.3034 42.7099C48.0219 37.3887 52.3489 33.2961 57.5249 31.1504C62.7008 29.0048 68.3951 28.9432 73.608 30.9765C77.2865 32.4112 80.8937 35.2815 81.7387 39.4913C81.9556 40.572 82.0022 41.7569 82.6125 42.6345C83.3821 43.7409 84.8545 43.9912 86.0669 43.6019C86.079 43.5981 86.0911 43.5941 86.1032 43.5901C86.308 43.5128 86.5291 43.5052 86.7379 43.5683C86.9466 43.6314 87.1335 43.7623 87.2742 43.9441C87.4149 44.1258 87.5031 44.3501 87.5273 44.5879C87.5515 44.8256 87.5106 45.066 87.4099 45.2777L86.3691 47.4237C87.6811 47.747 89.0443 47.7149 90.3427 47.3302C90.5584 47.2677 90.7863 47.2805 90.9951 47.3668C91.204 47.4531 91.3836 47.6087 91.5093 47.8124C91.635 48.016 91.7006 48.2576 91.6971 48.5041C91.6937 48.7506 91.6214 48.9898 91.49 49.1891C88.0581 54.3981 82.3245 57.7618 76.4735 57.7223C72.3149 57.6942 68.1136 56.1098 64.0663 57.167C62.5006 57.576 61.0376 58.3673 59.7846 59.4829C58.5316 60.5985 57.5205 62.0101 56.8253 63.6141C56.1302 65.2181 55.7687 66.9737 55.7673 68.7523C55.766 70.5309 56.1249 72.2873 56.8176 73.8925C55.5743 72.3891 53.1708 72.745 51.899 74.2191C50.6272 75.6932 50.298 77.8933 50.4261 79.9255C50.6221 83.0336 51.7236 85.9623 52.8849 88.8128C43.1488 88.4739 33.9401 80.9235 30.8404 70.7115C27.7277 60.4566 30.9899 48.2307 38.6387 41.4852Z"
            fill="black" />
        <path opacity="0.2" d="M23.3075 141.622L29.7269 180.235L33.5787 180.605L23.3075 141.622Z" fill="black" />
        <path opacity="0.2" d="M94.0187 138.71L87.5992 180.207L83.7474 180.605L94.0187 138.71Z" fill="black" />
        <path
            d="M44.1139 28.4904C42.8831 29.0585 41.5988 28.4359 41.0602 27.0098C40.5133 25.562 41.0241 24.0923 42.2746 23.515C43.5253 22.9377 44.7867 23.5619 45.3424 25.033C45.8898 26.4821 45.3846 27.9038 44.1139 28.4904ZM41.7562 20.6652L40.7775 21.117C40.533 21.2285 40.2596 21.2345 40.0113 21.1338C39.763 21.0332 39.5579 20.8331 39.4366 20.5733L39.3882 20.4686C38.3352 18.3692 38.2146 15.8175 39.0318 12.8887C39.7887 10.2613 40.1032 8.4135 39.4709 6.73948C38.7398 4.804 37.1788 4.19771 35.1881 5.07599C34.416 5.43241 34.1703 5.42673 33.5627 6.09307C33.4305 6.23978 33.273 6.35556 33.0995 6.43351C32.926 6.51146 32.74 6.54998 32.5527 6.54678C32.3717 6.54443 32.193 6.50179 32.0271 6.42142C31.8613 6.34104 31.7119 6.22457 31.5876 6.07896C31.3483 5.79834 31.2142 5.42778 31.2125 5.04212C31.2107 4.65645 31.3414 4.28441 31.5781 4.00114C32.5994 2.81926 33.8312 1.88425 35.1958 1.2551C39.4729 -0.719347 41.6261 2.19564 42.6114 4.80429C43.5751 7.35584 43.033 9.72325 42.1619 12.7893C41.432 15.337 41.4745 17.2248 42.3037 19.1018C42.3635 19.2437 42.3969 19.3976 42.4016 19.5541C42.4063 19.7105 42.3824 19.8665 42.3313 20.0125C42.2802 20.1585 42.2029 20.2916 42.104 20.4038C42.0052 20.5159 41.8869 20.6049 41.7562 20.6652Z"
            fill="#2B44FB" />
        <path
            d="M150.362 40.199H129.576C129.509 40.1995 129.444 40.1855 129.383 40.1579C129.322 40.1303 129.266 40.0896 129.219 40.0382C129.172 39.9867 129.135 39.9255 129.11 39.8581C129.084 39.7907 129.071 39.7185 129.071 39.6454C129.071 39.5724 129.084 39.5002 129.11 39.4328C129.135 39.3653 129.172 39.3042 129.219 39.2527C129.266 39.2013 129.322 39.1606 129.383 39.133C129.444 39.1054 129.509 39.0914 129.576 39.0919H150.362C150.495 39.0929 150.621 39.1517 150.714 39.2554C150.807 39.3591 150.86 39.4993 150.86 39.6454C150.86 39.7916 150.807 39.9318 150.714 40.0355C150.621 40.1392 150.495 40.198 150.362 40.199Z"
            fill="#2B44FB" />
        <path
            d="M176.732 40.3834H155.945C155.879 40.3839 155.813 40.37 155.752 40.3424C155.691 40.3148 155.636 40.2741 155.589 40.2226C155.542 40.1712 155.505 40.11 155.479 40.0426C155.454 39.9752 155.441 39.9029 155.441 39.8299C155.441 39.7569 155.454 39.6846 155.479 39.6172C155.505 39.5498 155.542 39.4886 155.589 39.4372C155.636 39.3857 155.691 39.345 155.752 39.3174C155.813 39.2898 155.879 39.2759 155.945 39.2764H176.732C176.798 39.2759 176.863 39.2898 176.924 39.3174C176.986 39.345 177.041 39.3857 177.088 39.4372C177.135 39.4886 177.172 39.5498 177.197 39.6172C177.223 39.6846 177.236 39.7569 177.236 39.8299C177.236 39.9029 177.223 39.9752 177.197 40.0426C177.172 40.11 177.135 40.1712 177.088 40.2226C177.041 40.2741 176.986 40.3148 176.924 40.3424C176.863 40.37 176.798 40.3839 176.732 40.3834Z"
            fill="#2B44FB" />
        <path
            d="M203.101 40.5679H182.314C182.182 40.5669 182.056 40.5081 181.962 40.4044C181.869 40.3007 181.817 40.1605 181.817 40.0143C181.817 39.8682 181.869 39.728 181.962 39.6243C182.056 39.5206 182.182 39.4618 182.314 39.4608H203.101C203.167 39.4603 203.233 39.4743 203.294 39.5019C203.355 39.5295 203.41 39.5702 203.457 39.6216C203.504 39.6731 203.541 39.7342 203.567 39.8016C203.592 39.869 203.605 39.9413 203.605 40.0143C203.605 40.0873 203.592 40.1596 203.567 40.227C203.541 40.2944 203.504 40.3556 203.457 40.4071C203.41 40.4585 203.355 40.4992 203.294 40.5268C203.233 40.5544 203.167 40.5684 203.101 40.5679Z"
            fill="#2B44FB" />
        <path
            d="M229.471 40.7524H208.684C208.551 40.7514 208.425 40.6927 208.332 40.589C208.239 40.4853 208.186 40.345 208.186 40.1989C208.186 40.0527 208.239 39.9125 208.332 39.8088C208.425 39.7051 208.551 39.6464 208.684 39.6454H229.471C229.603 39.6464 229.729 39.7051 229.822 39.8088C229.916 39.9125 229.968 40.0527 229.968 40.1989C229.968 40.345 229.916 40.4853 229.822 40.589C229.729 40.6927 229.603 40.7514 229.471 40.7524Z"
            fill="#2B44FB" />
        <path
            d="M139.923 35.1049C142.057 35.1049 143.787 33.1926 143.787 30.8338C143.787 28.475 142.057 26.5627 139.923 26.5627C137.789 26.5627 136.06 28.475 136.06 30.8338C136.06 33.1926 137.789 35.1049 139.923 35.1049Z"
            fill="#2B44FB" />
        <path
            d="M166.452 35.1049C168.586 35.1049 170.315 33.1926 170.315 30.8338C170.315 28.475 168.586 26.5627 166.452 26.5627C164.318 26.5627 162.589 28.475 162.589 30.8338C162.589 33.1926 164.318 35.1049 166.452 35.1049Z"
            fill="#2B44FB" />
        <path
            d="M192.981 35.1049C195.114 35.1049 196.844 33.1926 196.844 30.8338C196.844 28.475 195.114 26.5627 192.981 26.5627C190.847 26.5627 189.117 28.475 189.117 30.8338C189.117 33.1926 190.847 35.1049 192.981 35.1049Z"
            fill="#2B44FB" />
        <path
            d="M219.509 35.1049C221.643 35.1049 223.372 33.1926 223.372 30.8338C223.372 28.475 221.643 26.5627 219.509 26.5627C217.375 26.5627 215.646 28.475 215.646 30.8338C215.646 33.1926 217.375 35.1049 219.509 35.1049Z"
            fill="#2B44FB" />
    </g>
    <defs>
        <clipPath id="clip0_231_3228">
            <rect width="245" height="180" fill="white" transform="translate(0.780273 0.605469)" />
        </clipPath>
    </defs>
</svg>